<?xml version="1.0" encoding="UTF-8" standalone="no"?>
<!-- Created with Inkscape (http://www.inkscape.org/) -->

<svg
   width="272.39999"
   height="500"
   viewBox="0 0 72.072495 132.29167"
   version="1.1"
   id="svg5"
   xml:space="preserve"
   xmlns="http://www.w3.org/2000/svg"
   xmlns:svg="http://www.w3.org/2000/svg"
   xmlns:rdf="http://www.w3.org/1999/02/22-rdf-syntax-ns#"
   xmlns:cc="http://creativecommons.org/ns#"
   xmlns:dc="http://purl.org/dc/elements/1.1/"><title
     id="title2331">Bangladesh Hi-tech Park Authority (BHTPA) - বাংলাদেশ হাই-টেক পার্ক কর্তৃপক্ষ (বাহাটেপাক)</title><defs
     id="defs2"><pattern
       id="EMFhbasepattern"
       patternUnits="userSpaceOnUse"
       width="6"
       height="6"
       x="0"
       y="0" /><pattern
       id="EMFhbasepattern-5"
       patternUnits="userSpaceOnUse"
       width="6"
       height="6"
       x="0"
       y="0" /><pattern
       id="EMFhbasepattern-0"
       patternUnits="userSpaceOnUse"
       width="6"
       height="6"
       x="0"
       y="0" /><pattern
       id="EMFhbasepattern-8"
       patternUnits="userSpaceOnUse"
       width="6"
       height="6"
       x="0"
       y="0" /></defs><g
     id="layer1"
     transform="translate(-76.469359,-33.659205)"><g
       id="g2327"
       transform="matrix(1.0972007,0,0,1.0972007,7.9199918,34.92555)"><g
         id="g6383"
         transform="translate(-9.9415645,0.02076929)"><path
           id="path374"
           style="color:#000000;opacity:1;fill:#009540;fill-opacity:1;stroke-linecap:round;stroke-linejoin:round;paint-order:stroke fill markers"
           d="m 120.52719,-0.93378671 c -1.032,2.2e-6 -1.88258,0.85108438 -1.88258,1.88308917 0,0.80022804 0.51174,1.49150524 1.22267,1.76164954 v 7.390763 h -5.9061 c -1.16117,0 -2.11563,0.95395 -2.11563,2.115117 v 4.662247 c 0,0.364303 0.29612,0.659478 0.66042,0.659908 0.36491,4.3e-4 0.66198,-0.294996 0.66198,-0.659908 v -4.662247 c 0,-0.44621 0.34702,-0.793234 0.79323,-0.793234 h 12.38839 v 3.513998 c 0,0.714105 -0.5654,1.278991 -1.27951,1.278991 h -5.2281 c -0.36612,0 -0.66321,0.296372 -0.66249,0.662492 7.1e-4,0.36511 0.29738,0.659908 0.66249,0.659908 h 5.2281 c 1.42907,0 2.60191,-1.172329 2.60191,-2.601391 v -4.175973 c -8.9e-4,-0.364287 -0.29613,-0.6593 -0.66042,-0.659908 h -5.82187 V 2.7104353 c 0.7099,-0.2706737 1.2206,-0.9616466 1.2206,-1.76113284 0,-1.03200479 -0.85108,-1.88308697 -1.88309,-1.88308917 z m 0,1.32239989 c 0.31705,6.7e-7 0.56069,0.24364106 0.56069,0.56068928 0,0.31704824 -0.24364,0.55862154 -0.56069,0.55862224 -0.31704,-7e-7 -0.55863,-0.241574 -0.55863,-0.55862224 0,-0.31704822 0.24159,-0.56068861 0.55863,-0.56068928 z M 105.60148,18.509987 c -0.3657,-2.45e-4 -0.66222,0.296276 -0.66197,0.661976 v 9.446968 c 0,1.459623 1.19861,2.656685 2.65823,2.656685 h 9.40615 c 0.24749,1.88e-4 0.47438,-0.137781 0.58808,-0.357601 l 1.99781,-3.8809 h 7.48843 c 0.27014,0.710927 0.96142,1.222663 1.76165,1.222665 1.03202,6e-6 1.88257,-0.850563 1.88257,-1.882573 0,-1.032011 -0.85055,-1.883096 -1.88257,-1.883089 -0.79948,2e-6 -1.49046,0.510699 -1.76114,1.220598 h -7.89099 c -0.24794,2.14e-4 -0.47494,0.139049 -0.58807,0.359668 l -1.99833,3.878833 h -9.00359 c -0.74467,0 -1.33428,-0.589621 -1.33428,-1.334286 v -4.99401 h 15.15153 c 0.27055,0.710132 0.96096,1.220595 1.76061,1.220597 1.03201,-2e-6 1.88309,-0.850568 1.88309,-1.882572 0,-1.032005 -0.85108,-1.883088 -1.88309,-1.88309 -0.80022,2e-6 -1.49098,0.511738 -1.76113,1.222665 h -15.15101 v -2.47065 h 27.12341 v 12.710851 h -28.43548 c -1.59953,0 -2.91041,1.310877 -2.91041,2.910417 v 55.982629 c -2.5e-4,0.3657 0.29627,0.66222 0.66197,0.661975 h 15.69723 c 0.36591,5.39e-4 0.66275,-0.296068 0.6625,-0.661975 V 78.828269 c 0,-0.115836 0.0563,-0.222045 0.15193,-0.287321 l 4.16046,-2.83962 c 0.45577,-0.310899 0.73019,-0.827546 0.73019,-1.379244 v -8.128703 c 0,-0.933292 0.74258,-1.675866 1.67587,-1.675866 h 3.83801 c 0.93329,0 1.67586,0.742574 1.67586,1.675866 V 88.11349 c -0.71092,0.270145 -1.22266,0.961421 -1.22266,1.76165 0,1.032005 0.85056,1.88257 1.88257,1.882572 1.03201,7e-6 1.88309,-0.850561 1.88309,-1.882572 0,-0.799491 -0.5107,-1.490462 -1.2206,-1.761133 V 66.193381 c 0,-1.64825 -1.35001,-2.998266 -2.99826,-2.998266 h -3.83801 c -1.64825,0 -2.99982,1.350016 -2.99982,2.998266 v 8.128703 c 0,0.115836 -0.0568,0.222044 -0.15244,0.287321 l -4.15996,2.83807 c -0.45577,0.310898 -0.72863,0.829095 -0.72863,1.380794 v 11.945007 h -14.3769 V 35.453139 c 0,-0.884585 0.70342,-1.58595 1.58801,-1.58595 h 11.04842 v 4.804875 c 0,1.441239 1.18185,2.623096 2.6231,2.623096 h 8.00985 c 0.72629,0 1.30069,0.574412 1.30069,1.300696 v 1.699121 h -10.1756 c -1.45101,0 -2.64274,1.191718 -2.64274,2.642732 v 5.356262 c -0.70985,0.270694 -1.22059,0.961158 -1.22059,1.760616 0,1.032006 0.85057,1.883088 1.88257,1.88309 1.03201,-2e-6 1.88309,-0.851084 1.88309,-1.88309 0,-0.799458 -0.51074,-1.489922 -1.2206,-1.760616 v -5.356262 c 0,-0.736053 0.58222,-1.318782 1.31827,-1.318782 h 10.1756 v 9.94823 c -0.70989,0.270674 -1.22059,0.961646 -1.22059,1.761132 0,1.032005 0.85109,1.882571 1.88308,1.882573 1.03201,7e-6 1.88258,-0.850563 1.88258,-1.882573 0,-0.799491 -0.5107,-1.490462 -1.2206,-1.761132 V 42.595856 c 0,-1.441239 -1.18391,-2.623096 -2.62516,-2.623096 h -8.00985 c -0.7263,0 -1.3007,-0.574413 -1.3007,-1.300696 v -4.804875 h 16.87494 c 0.88459,0 1.58802,0.701365 1.58802,1.58595 v 20.76359 c 0,0.882437 -0.70144,1.583883 -1.58388,1.583883 -0.88244,-2e-6 -1.58389,-0.701446 -1.58389,-1.583883 v -16.56488 c 0.7099,-0.27067 1.2206,-0.961642 1.2206,-1.761133 0,-1.03201 -0.85108,-1.883095 -1.88309,-1.883089 -1.03201,3e-6 -1.88257,0.851084 -1.88257,1.883089 0,0.800205 0.51177,1.490972 1.22266,1.761133 v 16.56488 c 0,1.597388 1.3089,2.906279 2.90629,2.906283 1.5974,0 2.90628,-1.308889 2.90628,-2.906283 v -20.76359 c 0,-1.424189 -1.0399,-2.61692 -2.39675,-2.861841 V 19.171963 c 2.5e-4,-0.365704 -0.29628,-0.662227 -0.66198,-0.661976 z m 17.57412,3.894336 c 0.31705,10e-7 0.56069,0.241574 0.56069,0.558623 0,0.317047 -0.24364,0.560689 -0.56069,0.560689 -0.31705,0 -0.55862,-0.243642 -0.55862,-0.560689 0,-0.317049 0.24157,-0.558622 0.55862,-0.558623 z m 5.66426,3.412195 c 0.31705,-2e-6 0.55862,0.24364 0.55862,0.560689 0,0.317051 -0.24157,0.558108 -0.55862,0.558106 -0.31704,-1e-6 -0.56069,-0.241057 -0.56069,-0.558106 0,-0.317048 0.24365,-0.560688 0.56069,-0.560689 z M 107.8339,35.970937 c -1.03199,2e-6 -1.88257,0.850567 -1.88257,1.882572 0,0.799655 0.51047,1.49058 1.2206,1.761133 v 5.314921 c 0,0.575363 0.29665,1.112507 0.7829,1.420069 l 3.41994,2.162141 c 0.10437,0.06602 0.1664,0.179321 0.1664,0.302824 v 36.963635 c -0.71013,0.270553 -1.22111,0.960961 -1.22111,1.760616 0,1.032006 0.85108,1.883087 1.88309,1.883089 1.032,-2e-6 1.88257,-0.851083 1.88257,-1.883089 0,-0.800396 -0.5115,-1.491109 -1.22266,-1.761133 V 73.833742 h 3.29902 c 1.14965,0 2.09548,-0.945835 2.09548,-2.09548 v -12.5274 c 0,-0.11603 0.0456,-0.227989 0.12712,-0.310576 l 3.56464,-3.611149 c 0.32547,-0.329812 0.50746,-0.774798 0.50746,-1.238167 v -2.404504 c 0.71116,-0.270023 1.22267,-0.961253 1.22267,-1.76165 0,-1.032005 -0.85057,-1.883087 -1.88257,-1.883089 -1.03201,2e-6 -1.88258,0.851084 -1.88258,1.883089 0,0.799656 0.51047,1.49058 1.2206,1.761133 v 2.405021 c 0,0.116031 -0.0457,0.225921 -0.12712,0.308508 l -3.56464,3.613217 c -0.32547,0.329813 -0.50747,0.774799 -0.50747,1.238167 v 12.5274 c 0,0.434688 -0.3389,0.77153 -0.77359,0.77153 h -3.29902 V 48.814597 c 0,-0.575361 -0.29459,-1.112506 -0.78084,-1.420068 l -3.41994,-2.162142 c -0.10438,-0.06602 -0.1664,-0.179321 -0.1664,-0.302824 v -5.314921 c 0.71014,-0.270553 1.22111,-0.961478 1.22111,-1.761133 0,-1.032005 -0.85108,-1.88257 -1.88309,-1.882572 z m 0,1.321883 c 0.31705,0 0.56069,0.243641 0.56069,0.560689 0,0.317048 -0.24364,0.558623 -0.56069,0.558623 -0.31703,0 -0.56068,-0.241575 -0.56068,-0.558623 0,-0.317048 0.24365,-0.560689 0.56068,-0.560689 z m 24.12101,0.03721 c 0.31705,-2e-6 0.56069,0.24364 0.56069,0.560689 1e-5,0.317051 -0.24364,0.560692 -0.56069,0.56069 -0.31705,-10e-7 -0.55862,-0.243641 -0.55862,-0.56069 0,-0.317047 0.24157,-0.560688 0.55862,-0.560689 z m -44.233989,4.296895 c -0.365919,-5.71e-4 -0.662778,0.296057 -0.662492,0.661976 v 6.969083 H 76.624957 c -1.511286,0 -2.751769,1.238418 -2.751769,2.749703 v 36.452038 c -0.710134,0.270552 -1.220599,0.961476 -1.220598,1.761133 0,1.032006 0.850567,1.882572 1.882573,1.882572 1.032007,0 1.882571,-0.850566 1.882572,-1.882572 0,-0.799657 -0.510463,-1.490581 -1.220597,-1.761133 V 57.914817 c 0.595684,0.395727 1.415799,0.332053 1.939416,-0.184485 l 2.326473,-2.29495 c 0.08975,-0.08854 0.20983,-0.136426 0.335897,-0.136426 h 10.578165 v 1.20096 c 0,0.799344 -0.634159,1.433504 -1.433504,1.433504 h -3.912422 c -0.270144,-0.710927 -0.96142,-1.222664 -1.76165,-1.222664 -1.032006,10e-7 -1.882573,0.851083 -1.882572,1.883089 0,1.032006 0.850567,1.882573 1.882572,1.882573 0.799558,0 1.49051,-0.510602 1.761133,-1.220598 h 3.912939 c 1.514303,0 2.755388,-1.241601 2.755388,-2.755904 v -1.20096 h 4.479313 c 0.270672,0.709899 0.961645,1.220598 1.761133,1.220597 1.032005,0 1.883089,-0.851083 1.883089,-1.883089 -10e-7,-1.032006 -0.851084,-1.882571 -1.883089,-1.882572 -0.799488,0 -1.49046,0.510698 -1.761133,1.220597 H 79.798924 c -0.473324,0 -0.928598,0.18746 -1.265556,0.519865 l -2.326473,2.29495 c -0.08863,0.08743 -0.212216,0.08901 -0.302824,0.0036 l -0.706933,-0.66611 v -4.119128 c 0,-0.796329 0.63149,-1.42782 1.427819,-1.42782 h 11.095964 11.343493 c 0.365717,0 0.662547,-0.296258 0.661976,-0.661975 -5.7e-4,-0.364911 -0.297066,-0.659908 -0.661976,-0.659908 H 88.382896 V 42.28888 c 2.85e-4,-0.365717 -0.296258,-0.662261 -0.661975,-0.661976 z m 19.867009,6.409945 c -1.032,3e-6 -1.88309,0.851084 -1.88309,1.883089 0,0.799656 0.51098,1.49058 1.22111,1.761133 v 31.434773 c -0.71013,0.270554 -1.22111,0.961478 -1.22111,1.761133 0,1.032005 0.85108,1.88257 1.88309,1.882573 1.032,-3e-6 1.88257,-0.850568 1.88257,-1.882573 0,-0.800396 -0.5115,-1.491626 -1.22267,-1.761649 v -31.43374 c 0.71117,-0.270023 1.22267,-0.961253 1.22267,-1.76165 0,-1.032005 -0.85057,-1.883086 -1.88257,-1.883089 z m 14.20895,1.289327 c 0.31704,10e-7 0.55862,0.241574 0.55862,0.558622 0,0.317048 -0.24158,0.560689 -0.55862,0.560689 -0.31705,0 -0.56069,-0.243641 -0.56069,-0.560689 0,-0.317048 0.24364,-0.558621 0.56069,-0.558622 z m -14.20895,0.03514 c 0.31704,1e-6 0.55862,0.241573 0.55862,0.558622 0,0.317049 -0.24158,0.560688 -0.55862,0.560689 -0.31705,-1e-6 -0.56069,-0.24364 -0.56069,-0.560689 0,-0.317049 0.24364,-0.558621 0.56069,-0.558622 z m 8.18916,4.134631 c 0.31705,0 0.56069,0.241575 0.56069,0.558622 0,0.317049 -0.24364,0.56069 -0.56069,0.56069 -0.31704,0 -0.56017,-0.243641 -0.56017,-0.56069 0,-0.317047 0.24313,-0.558622 0.56017,-0.558622 z m -17.837671,0.580327 c 0.317048,0 0.560689,0.243123 0.560689,0.560172 0,0.317049 -0.243641,0.560688 -0.560689,0.560689 -0.317049,0 -0.558623,-0.24364 -0.558623,-0.560689 10e-7,-0.317049 0.241574,-0.560172 0.558623,-0.560172 z M 128.59594,56.7676 c 0.31705,-2e-6 0.56018,0.243639 0.56018,0.560689 0,0.31705 -0.24313,0.560175 -0.56018,0.560173 -0.31704,-10e-7 -0.56068,-0.243125 -0.56068,-0.560173 0,-0.317048 0.24364,-0.560688 0.56068,-0.560689 z m -45.326427,1.267623 c 0.317049,0 0.560689,0.241574 0.560689,0.558622 0,0.317049 -0.24364,0.56069 -0.560689,0.56069 -0.317049,0 -0.558621,-0.243641 -0.558622,-0.56069 0,-0.317048 0.241573,-0.558622 0.558622,-0.558622 z m 39.224477,1.179773 c -1.03201,2e-6 -1.88257,0.850567 -1.88257,1.882572 0,1.032005 0.85057,1.883088 1.88257,1.88309 0.80023,-2e-6 1.49151,-0.511738 1.76165,-1.222665 h 11.05876 c 0.68975,0 1.23455,0.544283 1.23455,1.234033 v 29.932023 c 0,0.689749 -0.5448,1.234033 -1.23455,1.234033 H 74.628697 c -0.365717,0 -0.662403,0.296259 -0.661975,0.661975 4.28e-4,0.365111 0.296863,0.660425 0.661975,0.660425 H 135.3144 c 1.40471,0 2.55695,-1.151724 2.55695,-2.556433 V 62.992026 c 0,-1.404708 -1.15224,-2.556433 -2.55695,-2.556433 h -11.05928 c -0.27062,-0.709995 -0.96157,-1.220596 -1.76113,-1.220597 z m 0,1.321883 c 0.31705,10e-7 0.56069,0.243642 0.56069,0.560689 0,0.317049 -0.24364,0.558622 -0.56069,0.558623 -0.31705,-10e-7 -0.55862,-0.241574 -0.55862,-0.558623 0,-0.317047 0.24157,-0.560688 0.55862,-0.560689 z m -40.427504,1.232483 c -1.959031,0 -3.562573,1.601474 -3.562573,3.560506 V 89.31445 c 0,1.528507 1.252719,2.783293 2.781225,2.783293 h 8.388635 c 1.528507,0 2.781226,-1.254786 2.781226,-2.783293 v -8.566402 c 0,-0.521373 -0.201878,-1.023565 -0.564307,-1.398364 L 88.181875,75.51581 c -0.124191,-0.128429 -0.193787,-0.299872 -0.193787,-0.478524 v -5.211052 c 0.71122,-0.269993 1.222665,-0.96121 1.222664,-1.761649 10e-7,-1.032006 -0.850566,-1.883089 -1.882572,-1.883089 -1.032007,-10e-7 -1.883089,0.851082 -1.883089,1.883089 0,0.799631 0.511017,1.490045 1.221114,1.760616 v 5.212085 c 0,0.521373 0.201878,1.023565 0.564307,1.398364 l 3.708817,3.833874 c 0.124191,0.128429 0.193271,0.299872 0.19327,0.478524 v 8.566402 c 0,0.81355 -0.645277,1.458827 -1.458826,1.458826 h -3.531567 l 0.01292,-5.228105 c 0.711487,-0.269854 1.223699,-0.961533 1.223698,-1.762166 0,-1.032006 -0.850567,-1.882573 -1.882572,-1.882572 -1.032006,0 -1.883089,0.850566 -1.88309,1.882572 0,0.799084 0.510224,1.489656 1.219564,1.760616 l -0.01292,5.229655 h -3.534668 c -0.813548,0 -1.458826,-0.645276 -1.458826,-1.458826 V 65.329868 c 0,-1.244074 0.9961,-2.238106 2.240174,-2.238106 h 9.066113 v 5.472534 c 0,0.366121 0.296371,0.663207 0.662492,0.662492 0.365111,-7.13e-4 0.659908,-0.29738 0.659908,-0.662492 v -5.472534 h 4.441589 c 0.839381,0 1.505851,0.66647 1.505851,1.505851 v 4.331002 c -0.710133,0.270552 -1.220598,0.960959 -1.220597,1.760616 -10e-7,1.032007 0.850565,1.883089 1.882572,1.883089 1.032006,2e-6 1.883086,-0.851081 1.883086,-1.883089 0,-0.799658 -0.51098,-1.490065 -1.22111,-1.760616 v -4.331002 c 0,-1.554338 -1.275463,-2.828251 -2.829802,-2.828251 z m 5.261694,5.734534 c 0.317049,0 0.558622,0.24364 0.558622,0.560689 0,0.317049 -0.241573,0.560172 -0.558622,0.560172 -0.317049,0 -0.560689,-0.243123 -0.560689,-0.560172 0,-0.317049 0.24364,-0.560689 0.560689,-0.560689 z m 4.466911,2.230354 c -1.032007,0 -1.883089,0.851084 -1.883089,1.88309 0,0.79946 0.510736,1.489923 1.220597,1.760616 v 1.879988 c 10e-7,1.072151 0.883285,1.956987 1.955436,1.956987 h 1.441256 c 0.357192,0 0.633036,0.275327 0.633036,0.632519 v 12.925826 h -1.478979 c -0.365112,0 -0.660051,0.29738 -0.659908,0.662492 1.43e-4,0.36491 0.294999,0.661119 0.659908,0.661975 h 2.812748 c 1.776109,0 3.230294,-1.454701 3.230294,-3.230811 V 73.888519 c 0,-0.364911 -0.297066,-0.659909 -0.661976,-0.659908 -0.36491,10e-7 -0.661119,0.294999 -0.661975,0.659908 v 14.978413 c 0,1.061152 -0.845192,1.906344 -1.906343,1.906344 H 96.48421 V 77.84745 c 0,-1.07215 -0.882769,-1.956986 -1.954919,-1.956986 h -1.441256 c -0.357193,0 -0.633036,-0.275326 -0.633036,-0.63252 v -1.879472 c 0.710894,-0.27016 1.222664,-0.960926 1.222664,-1.761132 10e-7,-1.032006 -0.850565,-1.88309 -1.882572,-1.88309 z m 7.269323,0.396359 c 0.31705,0 0.56069,0.241573 0.56069,0.558622 0,0.31705 -0.24364,0.56069 -0.56069,0.560689 -0.317048,0 -0.560689,-0.24364 -0.560689,-0.560689 0,-0.317049 0.243641,-0.558622 0.560689,-0.558622 z m -7.269323,0.928108 c 0.317048,0 0.558622,0.241574 0.558622,0.558623 -10e-7,0.317049 -0.241574,0.560172 -0.558622,0.560172 -0.317049,0 -0.56069,-0.243123 -0.56069,-0.560172 0,-0.317049 0.243641,-0.558623 0.56069,-0.558623 z m -6.29884,12.165666 c 0.317048,0 0.558622,0.241573 0.558622,0.558622 10e-7,0.317049 -0.241574,0.560689 -0.558622,0.560689 -0.317049,0 -0.56069,-0.24364 -0.56069,-0.560689 0,-0.317049 0.243641,-0.558621 0.56069,-0.558622 z m 22.091679,1.09399 c 0.31704,1e-6 0.55862,0.241574 0.55862,0.558622 0,0.317049 -0.24158,0.560688 -0.55862,0.560689 -0.31705,-10e-7 -0.56069,-0.24364 -0.56069,-0.560689 0,-0.317048 0.24364,-0.558621 0.56069,-0.558622 z m 4.61522,2.661853 c 0.31704,0 0.55862,0.241574 0.55862,0.558622 0,0.317049 -0.24158,0.560689 -0.55862,0.560689 -0.31705,0 -0.56069,-0.24364 -0.56069,-0.560689 0,-0.317048 0.24364,-0.558622 0.56069,-0.558622 z m 19.75176,2.334224 c 0.31705,-2e-6 0.56069,0.24364 0.56069,0.56069 1e-5,0.31705 -0.24364,0.558624 -0.56069,0.558622 -0.31705,-10e-7 -0.55862,-0.241574 -0.55862,-0.558622 0,-0.317048 0.24157,-0.560689 0.55862,-0.56069 z m -57.419747,0.345716 c 0.317048,0 0.560689,0.24364 0.560689,0.560689 0,0.317049 -0.243641,0.560172 -0.560689,0.560172 -0.317049,0 -0.560689,-0.243123 -0.56069,-0.560172 0,-0.317049 0.243641,-0.560689 0.56069,-0.560689 z" /><path
           id="circle4314"
           style="opacity:1;fill:#e6402d;fill-opacity:1;fill-rule:evenodd;stroke-width:1.79577;stop-color:#000000;stop-opacity:1"
           d="m 87.720915,30.173875 c -3.224598,0 -6.28901,1.413165 -8.382951,3.865397 a 0.66145998,0.66145998 0 0 0 0.0739,0.931209 0.66145998,0.66145998 0 0 0 0.931727,-0.07183 c 1.843128,-2.158503 4.538973,-3.402376 7.377327,-3.402376 2.838355,0 5.533682,1.243873 7.376811,3.402376 a 0.66145998,0.66145998 0 0 0 0.931726,0.07183 0.66145998,0.66145998 0 0 0 0.0739,-0.931209 c -2.093948,-2.452232 -5.157842,-3.865397 -8.38244,-3.865397 z m 0,3.056661 c -2.33056,0 -4.545692,1.020762 -6.059062,2.793111 a 0.66145998,0.66145998 0 0 0 0.07235,0.931209 0.66145998,0.66145998 0 0 0 0.933793,-0.07183 c 1.262556,-1.478616 3.108609,-2.33009 5.052922,-2.33009 1.944313,0 3.789849,0.851474 5.052405,2.33009 a 0.66145998,0.66145998 0 0 0 0.931726,0.07183 0.66145998,0.66145998 0 0 0 0.07441,-0.931209 c -1.51337,-1.772349 -3.727984,-2.793111 -6.058544,-2.793111 z m 0,3.054594 c -1.436563,0 -2.801858,0.630372 -3.734656,1.722892 a 0.66145998,0.66145998 0 0 0 0.07235,0.931209 0.66145998,0.66145998 0 0 0 0.933793,-0.07183 c 0.681986,-0.79876 1.67822,-1.259871 2.728516,-1.259871 1.050297,0 2.04653,0.461111 2.728515,1.259871 a 0.66145998,0.66145998 0 0 0 0.93121,0.07183 0.66145998,0.66145998 0 0 0 0.07441,-0.931209 C 90.522256,36.915502 89.157477,36.28513 87.720915,36.28513 Z m -5.17e-4,3.253548 a 1.6578828,1.6578828 0 0 0 -1.65778,1.65778 1.6578828,1.6578828 0 0 0 1.65778,1.65778 1.6578828,1.6578828 0 0 0 1.65778,-1.65778 1.6578828,1.6578828 0 0 0 -1.65778,-1.65778 z" /></g><g
         id="g2227"
         transform="translate(-10.121164,-0.19102966)"><path
           id="path620"
           style="font-weight:800;font-size:5.99749px;line-height:125%;font-family:'Ely Rounded';letter-spacing:3.69094px;word-spacing:0px;fill:#009540;fill-opacity:1;stroke:none;stroke-width:0;stroke-dasharray:none"
           d="m 129.66203,100.5763 c -0.18804,0 -0.36635,0.0242 -0.53537,0.0729 -0.1669,0.0487 -0.31253,0.12277 -0.43718,0.22221 -0.12254,0.0973 -0.22111,0.22134 -0.29507,0.37155 -0.0718,0.14811 -0.10749,0.32052 -0.10749,0.51728 0,0.17138 0.0257,0.31809 0.0765,0.4408 0.0507,0.12272 0.11556,0.22993 0.19585,0.32091 0.0824,0.0888 0.17554,0.16591 0.27906,0.23151 0.10352,0.0634 0.21001,0.12077 0.31987,0.17157 0.10986,0.0508 0.21688,0.0992 0.3204,0.14573 0.10352,0.0445 0.19566,0.0934 0.27595,0.14624 0.0824,0.0508 0.14823,0.10954 0.19895,0.17725 0.0507,0.0656 0.0765,0.14514 0.0765,0.23823 0,0.0804 -0.0148,0.15351 -0.0444,0.21911 -0.0296,0.0656 -0.0732,0.12045 -0.13022,0.16485 -0.0549,0.0444 -0.12229,0.0795 -0.20257,0.1049 -0.0803,0.0233 -0.17092,0.0346 -0.27234,0.0346 -0.15422,0 -0.29045,-0.0168 -0.40876,-0.0506 -0.1162,-0.0359 -0.21677,-0.075 -0.30127,-0.11731 -0.0845,-0.0423 -0.15437,-0.0803 -0.20929,-0.1142 -0.0528,-0.036 -0.0935,-0.0543 -0.12299,-0.0543 -0.0211,0 -0.0405,0.006 -0.0574,0.0191 -0.0148,0.0105 -0.0276,0.0293 -0.0382,0.0568 -0.009,0.0275 -0.0146,0.0636 -0.0186,0.10801 -0.004,0.0444 -0.006,0.0998 -0.006,0.16536 0,0.0973 0.005,0.17244 0.016,0.22531 0.0127,0.0508 0.0325,0.0898 0.06,0.11731 0.0275,0.0275 0.0721,0.0591 0.13332,0.0951 0.0634,0.0359 0.14166,0.071 0.23461,0.1049 0.093,0.0317 0.19946,0.0589 0.31988,0.0822 0.12254,0.0233 0.25482,0.0351 0.39636,0.0351 0.20917,0 0.40531,-0.0277 0.58911,-0.0827 0.1838,-0.055 0.3443,-0.13653 0.48162,-0.24443 0.13732,-0.11002 0.24631,-0.24637 0.3266,-0.40928 0.0803,-0.16291 0.12041,-0.35212 0.12041,-0.56792 0,-0.16503 -0.0257,-0.30781 -0.0765,-0.4284 -0.0507,-0.12272 -0.11707,-0.22844 -0.19947,-0.3173 -0.0824,-0.091 -0.17651,-0.16804 -0.28215,-0.23151 -0.10564,-0.0656 -0.21364,-0.12386 -0.32349,-0.17466 -0.10987,-0.0508 -0.21735,-0.0987 -0.32298,-0.14315 -0.10564,-0.0465 -0.20074,-0.0949 -0.28526,-0.14572 -0.0824,-0.0529 -0.14874,-0.11217 -0.19947,-0.17777 -0.0486,-0.0677 -0.0729,-0.14674 -0.0729,-0.23771 0,-0.0614 0.0109,-0.11967 0.032,-0.17467 0.0233,-0.055 0.0564,-0.10146 0.10077,-0.13952 0.0465,-0.0402 0.10396,-0.0714 0.17156,-0.0925 0.0676,-0.0233 0.14635,-0.0346 0.2372,-0.0346 0.1162,0 0.2232,0.0148 0.32039,0.0444 0.0972,0.0275 0.18289,0.0591 0.25683,0.0951 0.0739,0.0339 0.13584,0.0655 0.18656,0.0951 0.0507,0.0296 0.0879,0.0444 0.1111,0.0444 0.0233,0 0.0416,-0.006 0.0543,-0.0191 0.0145,-0.0127 0.0248,-0.0324 0.0315,-0.0599 0.009,-0.0275 0.014,-0.0626 0.016,-0.1049 0.004,-0.0423 0.006,-0.0942 0.006,-0.15555 0,-0.055 -6.9e-4,-0.10043 -0.003,-0.13643 -0.002,-0.0381 -0.006,-0.0687 -0.0129,-0.092 -0.004,-0.0254 -0.0106,-0.0457 -0.0191,-0.0605 -0.006,-0.0149 -0.0197,-0.0326 -0.0408,-0.0537 -0.0211,-0.0211 -0.0642,-0.0478 -0.1297,-0.0796 -0.0655,-0.0317 -0.1403,-0.0599 -0.2248,-0.0853 -0.0845,-0.0254 -0.17618,-0.0457 -0.27337,-0.0605 -0.0972,-0.0148 -0.19427,-0.0222 -0.29145,-0.0222 z m -33.373673,0.003 c -0.323249,0 -0.616995,0.0499 -0.881084,0.14934 -0.261976,0.0994 -0.485871,0.2432 -0.671793,0.4315 -0.185918,0.18619 -0.330088,0.41343 -0.431498,0.68213 -0.101411,0.26658 -0.151412,0.56845 -0.151412,0.90485 0,0.32583 0.04703,0.6178 0.14211,0.87592 0.09507,0.256 0.23228,0.47386 0.411861,0.6537 0.179584,0.17772 0.398537,0.31408 0.656291,0.40928 0.259864,0.0931 0.553607,0.13953 0.881083,0.13953 0.111976,0 0.222929,-0.005 0.332796,-0.0155 0.111976,-0.0106 0.22195,-0.0269 0.329696,-0.0481 0.109867,-0.0212 0.215364,-0.0464 0.316776,-0.076 0.101411,-0.0297 0.186128,-0.0583 0.253731,-0.0858 0.06972,-0.0275 0.114777,-0.0646 0.135909,-0.11111 0.02324,-0.0487 0.03514,-0.10448 0.03514,-0.16794 v -1.63453 c 0,-0.0423 -0.0054,-0.0794 -0.01602,-0.1111 -0.01056,-0.0339 -0.02641,-0.0625 -0.04754,-0.0858 -0.01901,-0.0233 -0.0423,-0.04 -0.06976,-0.0506 -0.02535,-0.0127 -0.05456,-0.0191 -0.08837,-0.0191 h -1.384929 c -0.01901,0 -0.03585,0.006 -0.05064,0.0191 -0.01479,0.0106 -0.02767,0.0283 -0.03824,0.0537 -0.01058,0.0233 -0.01899,0.0554 -0.02532,0.0956 -0.0042,0.0402 -0.0062,0.0896 -0.0062,0.14882 0,0.11425 0.01039,0.19577 0.03152,0.24443 0.02113,0.0465 0.05085,0.0698 0.08888,0.0698 h 0.77618 v 0.95239 c -0.07817,0.0423 -0.162885,0.0739 -0.253731,0.0951 -0.09085,0.0211 -0.182482,0.0315 -0.275435,0.0315 -0.190145,0 -0.36451,-0.0306 -0.522966,-0.092 -0.156341,-0.0614 -0.290584,-0.15226 -0.402559,-0.27286 -0.111975,-0.1206 -0.199651,-0.26979 -0.263033,-0.44751 -0.06127,-0.17984 -0.09198,-0.38734 -0.09198,-0.62219 0,-0.21368 0.03072,-0.40833 0.09198,-0.58394 0.06127,-0.17772 0.148948,-0.32889 0.263033,-0.45372 0.114088,-0.12695 0.251295,-0.22427 0.411861,-0.29197 0.160567,-0.0698 0.340385,-0.10491 0.538985,-0.10491 0.18592,0 0.348386,0.0193 0.487825,0.0574 0.141551,0.0381 0.262906,0.0791 0.364319,0.1235 0.101408,0.0444 0.183165,0.086 0.24443,0.12403 0.06127,0.0381 0.105343,0.0568 0.132808,0.0568 0.01901,0 0.03487,-0.005 0.04754,-0.0155 0.01479,-0.0106 0.02668,-0.0289 0.03514,-0.0543 0.0106,-0.0275 0.01803,-0.064 0.02222,-0.10852 0.0063,-0.0443 0.0093,-0.097 0.0093,-0.15813 -2.3e-5,-0.10554 -0.0064,-0.18545 -0.01912,-0.23823 -0.01268,-0.055 -0.03398,-0.0965 -0.06356,-0.12609 -0.02747,-0.0296 -0.07648,-0.0652 -0.148311,-0.10542 -0.07183,-0.0402 -0.162991,-0.0772 -0.272852,-0.11111 -0.107746,-0.036 -0.234042,-0.0656 -0.379822,-0.0889 -0.145779,-0.0254 -0.307776,-0.0377 -0.485241,-0.0377 z m 5.850803,0.0501 c -0.0803,0 -0.14816,0.003 -0.20309,0.01 -0.0528,0.006 -0.0944,0.0147 -0.12609,0.0253 -0.0317,0.0106 -0.055,0.0244 -0.0698,0.0413 -0.0127,0.0169 -0.0191,0.0362 -0.0191,0.0574 v 3.72898 c 0,0.0931 0.0233,0.16075 0.0698,0.20308 0.0486,0.0402 0.10753,0.0605 0.17725,0.0605 h 1.87947 c 0.0212,0 0.0389,-0.006 0.0538,-0.0191 0.0169,-0.0127 0.0307,-0.0329 0.0413,-0.0605 0.0108,-0.0296 0.0182,-0.0657 0.0222,-0.108 0.007,-0.0444 0.01,-0.0983 0.01,-0.16175 0,-0.0634 -0.003,-0.11631 -0.01,-0.15864 -0.004,-0.0444 -0.0116,-0.0795 -0.0222,-0.10491 -0.0106,-0.0275 -0.0244,-0.0462 -0.0413,-0.0568 -0.0149,-0.0127 -0.0327,-0.0191 -0.0538,-0.0191 h -1.28984 v -3.30368 c 0,-0.0211 -0.007,-0.0404 -0.0222,-0.0574 -0.0127,-0.0169 -0.035,-0.0307 -0.0667,-0.0413 -0.0317,-0.0103 -0.0744,-0.0186 -0.12713,-0.0253 -0.0528,-0.007 -0.12018,-0.01 -0.20257,-0.01 z m 33.03003,0 c -0.0803,0 -0.14817,0.003 -0.20309,0.01 -0.0528,0.006 -0.0949,0.0152 -0.12661,0.0258 -0.0317,0.0106 -0.055,0.0239 -0.0698,0.0408 -0.0127,0.0169 -0.0191,0.0362 -0.0191,0.0574 v 3.87832 c 0,0.0211 0.006,0.0399 0.0191,0.0568 0.0148,0.0169 0.0381,0.0307 0.0698,0.0413 0.0317,0.0103 0.0739,0.0187 0.12661,0.0253 0.0549,0.007 0.12281,0.0103 0.20309,0.0103 0.0824,0 0.14979,-0.004 0.20257,-0.0103 0.0528,-0.006 0.0955,-0.0147 0.12712,-0.0253 0.0317,-0.0106 0.0534,-0.0245 0.0661,-0.0413 0.0127,-0.0169 0.0191,-0.0357 0.0191,-0.0568 v -1.65985 h 1.53427 v 1.65985 c 0,0.0211 0.006,0.0399 0.0186,0.0568 0.0148,0.0169 0.0365,0.0307 0.0661,0.0413 0.0317,0.0103 0.0744,0.0187 0.12713,0.0253 0.0549,0.007 0.12328,0.0103 0.20567,0.0103 0.0803,0 0.1472,-0.004 0.19999,-0.0103 0.0528,-0.006 0.0954,-0.0147 0.12712,-0.0253 0.0317,-0.0106 0.0534,-0.0245 0.0661,-0.0413 0.0148,-0.0169 0.0222,-0.0357 0.0222,-0.0568 v -3.87832 c 0,-0.0211 -0.007,-0.0404 -0.0222,-0.0574 -0.0127,-0.0169 -0.0344,-0.0302 -0.0661,-0.0408 -0.0317,-0.0103 -0.0744,-0.0192 -0.12712,-0.0258 -0.0528,-0.007 -0.1197,-0.01 -0.19999,-0.01 -0.0824,0 -0.15075,0.003 -0.20567,0.01 -0.0528,0.006 -0.0955,0.0152 -0.12713,0.0258 -0.0296,0.0106 -0.0513,0.0239 -0.0661,0.0408 -0.0127,0.0169 -0.0186,0.0362 -0.0186,0.0574 v 1.50741 h -1.53427 v -1.50741 c 0,-0.0211 -0.006,-0.0404 -0.0191,-0.0574 -0.0126,-0.0169 -0.0345,-0.0302 -0.0661,-0.0408 -0.0317,-0.0103 -0.0743,-0.0192 -0.12712,-0.0258 -0.0528,-0.007 -0.12017,-0.01 -0.20257,-0.01 z m -54.035981,10e-4 c -0.07289,7.5e-4 -0.133807,0.003 -0.182934,0.006 -0.0655,0.002 -0.117005,0.01 -0.155029,0.0222 -0.03592,0.0106 -0.06268,0.0279 -0.07958,0.0512 -0.0169,0.0211 -0.03176,0.0493 -0.04444,0.0853 l -1.264522,3.6437 c -0.02536,0.0741 -0.04121,0.13337 -0.04754,0.17777 -0.0063,0.0444 0.0011,0.079 0.02222,0.10438 0.02113,0.0229 0.05927,0.0378 0.114205,0.0444 0.05493,0.007 0.130708,0.0103 0.227893,0.0103 0.09085,0 0.164173,-0.002 0.219108,-0.006 0.05704,-0.004 0.100134,-0.0116 0.129708,-0.0222 0.03169,-0.0127 0.05398,-0.0285 0.06666,-0.0476 0.01479,-0.0212 0.02618,-0.0469 0.03462,-0.0765 l 0.259933,-0.80253 h 1.539957 l 0.275952,0.82475 c 0.0085,0.0275 0.01884,0.0497 0.03152,0.0667 0.01268,0.0169 0.03497,0.0307 0.06666,0.0413 0.03169,0.009 0.07727,0.014 0.136425,0.016 0.06127,0.004 0.145467,0.006 0.253215,0.006 0.103527,0 0.184757,-0.004 0.243913,-0.0103 0.05916,-0.004 0.100783,-0.0171 0.124023,-0.0382 0.02323,-0.0233 0.03164,-0.0569 0.02532,-0.10129 -0.0063,-0.0444 -0.02219,-0.1047 -0.04754,-0.18087 l -1.267623,-3.64009 c -0.01268,-0.0402 -0.02852,-0.0718 -0.04754,-0.0951 -0.0169,-0.0233 -0.04662,-0.0406 -0.08888,-0.0512 -0.04014,-0.0128 -0.09659,-0.0202 -0.170533,-0.0222 -0.07395,-0.004 -0.174038,-0.006 -0.298689,-0.006 -0.02694,0 -0.05218,-2.5e-4 -0.07648,0 z m 27.960051,0 c -0.0726,7.5e-4 -0.13394,0.003 -0.18294,0.006 -0.0655,0.002 -0.117,0.01 -0.15502,0.0222 -0.0359,0.0106 -0.0621,0.0279 -0.0791,0.0512 -0.0169,0.0211 -0.0317,0.0493 -0.0444,0.0853 l -1.26504,3.6437 c -0.025,0.0741 -0.0408,0.13337 -0.0475,0.17777 -0.006,0.0444 0.001,0.079 0.0222,0.10438 0.0211,0.0229 0.0592,0.0378 0.1142,0.0444 0.0549,0.007 0.1307,0.0103 0.2279,0.0103 0.0908,0 0.16418,-0.002 0.2191,-0.006 0.0571,-0.004 0.10015,-0.0116 0.12971,-0.0222 0.0318,-0.0127 0.054,-0.0285 0.0667,-0.0476 0.0148,-0.0212 0.0261,-0.0469 0.0346,-0.0765 l 0.25993,-0.80253 h 1.54048 l 0.27543,0.82475 c 0.008,0.0275 0.0188,0.0497 0.0315,0.0667 0.0127,0.0169 0.035,0.0307 0.0667,0.0413 0.0317,0.009 0.0772,0.014 0.13642,0.016 0.0613,0.004 0.14598,0.006 0.25373,0.006 0.10349,0 0.18524,-0.004 0.24443,-0.0103 0.0592,-0.004 0.0998,-0.0171 0.12299,-0.0382 0.0236,-0.0233 0.0319,-0.0569 0.0253,-0.10129 -0.006,-0.0444 -0.0221,-0.1047 -0.0475,-0.18087 l -1.2671,-3.64009 c -0.0126,-0.0402 -0.029,-0.0718 -0.0481,-0.0951 -0.0169,-0.0233 -0.0466,-0.0406 -0.0889,-0.0512 -0.0401,-0.0128 -0.0971,-0.0202 -0.17105,-0.0222 -0.074,-0.004 -0.17352,-0.006 -0.29817,-0.006 -0.0267,0 -0.0518,-2.5e-4 -0.076,0 z m -19.201929,0.006 c -0.07606,0 -0.137962,0.003 -0.186552,0.0103 -0.04859,0.004 -0.08773,0.0126 -0.117305,0.0253 -0.02958,0.0127 -0.05089,0.0275 -0.06356,0.0444 -0.01268,0.0169 -0.0186,0.0362 -0.0186,0.0574 v 1.92598 c 0,0.14599 9.69e-4,0.29965 0.0031,0.46044 0.0042,0.16079 0.0097,0.31491 0.01602,0.46302 h -0.0031 c -0.03803,-0.0846 -0.07768,-0.1691 -0.117822,-0.25373 -0.04014,-0.0846 -0.08125,-0.1701 -0.123507,-0.25684 -0.04225,-0.0889 -0.08633,-0.17681 -0.132809,-0.26355 -0.04437,-0.0889 -0.08994,-0.17877 -0.136425,-0.26975 l -0.798918,-1.5012 c -0.04014,-0.0825 -0.07928,-0.15119 -0.117305,-0.20619 -0.03803,-0.0571 -0.07862,-0.10158 -0.12299,-0.13332 -0.04226,-0.0317 -0.09132,-0.0539 -0.146245,-0.0667 -0.05493,-0.0148 -0.122287,-0.0222 -0.202571,-0.0222 h -0.447001 c -0.08451,0 -0.156335,0.0252 -0.215491,0.076 -0.05705,0.0487 -0.08527,0.12277 -0.08527,0.22221 v 3.69125 c 0,0.0211 0.0049,0.0399 0.0155,0.0568 0.01056,0.0169 0.02989,0.0313 0.05736,0.0439 0.02747,0.0103 0.0651,0.0187 0.113689,0.0253 0.04859,0.007 0.11003,0.0103 0.183968,0.0103 0.07606,0 0.137966,-0.004 0.186552,-0.0103 0.04859,-0.006 0.08725,-0.0147 0.114721,-0.0253 0.02958,-0.0127 0.04938,-0.027 0.05994,-0.0439 0.01267,-0.0169 0.01912,-0.0357 0.01912,-0.0568 v -2.14871 c 0,-0.16079 -0.002,-0.31642 -0.0062,-0.46664 -0.0042,-0.15234 -0.01068,-0.30449 -0.01912,-0.45682 h 0.0062 c 0.04859,0.12482 0.103585,0.25377 0.164848,0.38706 0.06127,0.13118 0.121711,0.25368 0.180867,0.36793 l 1.020093,1.9203 c 0.05282,0.10579 0.100891,0.19275 0.143144,0.26045 0.04225,0.0656 0.08482,0.11845 0.129191,0.15865 0.04648,0.0381 0.09653,0.0643 0.149345,0.0791 0.05493,0.0148 0.119324,0.0222 0.19327,0.0222 h 0.3545 c 0.04014,0 0.0798,-0.005 0.117822,-0.016 0.04014,-0.0127 0.07381,-0.0315 0.101286,-0.0568 0.02958,-0.0254 0.05286,-0.057 0.06976,-0.0951 0.0169,-0.0381 0.02481,-0.0816 0.02481,-0.13022 v -3.69073 c 0,-0.0211 -0.0044,-0.0404 -0.01499,-0.0574 -0.01056,-0.0169 -0.02989,-0.0317 -0.05736,-0.0444 -0.02536,-0.0129 -0.06252,-0.0213 -0.111104,-0.0253 -0.04859,-0.007 -0.108519,-0.0103 -0.180351,-0.0103 z m -16.713191,0.0129 c -0.06972,0 -0.128655,0.0212 -0.177251,0.0636 -0.04648,0.0402 -0.06976,0.1069 -0.06976,0.19999 v 3.57963 c 0,0.0931 0.02328,0.16075 0.06976,0.20308 0.04859,0.0402 0.107535,0.0605 0.177251,0.0605 h 1.089855 c 0.164794,0 0.313897,-0.01 0.447002,-0.0289 0.135209,-0.0211 0.262025,-0.0528 0.380338,-0.0951 0.118314,-0.0423 0.225788,-0.0962 0.322978,-0.16175 0.0993,-0.0656 0.184532,-0.14363 0.254248,-0.23461 0.07183,-0.091 0.127288,-0.1957 0.167431,-0.31419 0.04014,-0.11848 0.06046,-0.25089 0.06046,-0.39687 0,-0.13964 -0.02131,-0.26563 -0.06356,-0.37776 -0.04225,-0.11214 -0.100205,-0.20946 -0.17415,-0.29197 -0.07183,-0.0846 -0.157533,-0.15332 -0.256832,-0.20619 -0.09719,-0.0529 -0.203675,-0.09 -0.319877,-0.1111 0.09085,-0.0339 0.171091,-0.0783 0.240813,-0.13333 0.07183,-0.055 0.131757,-0.11824 0.18035,-0.19017 0.04859,-0.0719 0.08575,-0.15149 0.111105,-0.23823 0.02535,-0.0889 0.03824,-0.18323 0.03824,-0.28267 0,-0.17772 -0.03171,-0.33184 -0.09508,-0.46302 -0.06338,-0.13117 -0.155013,-0.23938 -0.275436,-0.32401 -0.118313,-0.0867 -0.265441,-0.15094 -0.4408,-0.19327 -0.173242,-0.0423 -0.385242,-0.0636 -0.636653,-0.0636 z m 41.9039,0 c -0.0697,0 -0.12865,0.0212 -0.17725,0.0636 -0.0465,0.0402 -0.0698,0.1069 -0.0698,0.19999 v 3.57963 c 0,0.0931 0.0233,0.16075 0.0698,0.20308 0.0486,0.0402 0.10753,0.0605 0.17725,0.0605 h 0.97927 c 0.36339,0 0.67595,-0.039 0.93793,-0.1173 0.26408,-0.0804 0.48798,-0.20539 0.67179,-0.37465 0.18381,-0.16926 0.32449,-0.38713 0.42168,-0.65371 0.0993,-0.2687 0.14883,-0.5913 0.14883,-0.9679 0,-0.32582 -0.0451,-0.61287 -0.13591,-0.86041 -0.0908,-0.24755 -0.2241,-0.45453 -0.39946,-0.62167 -0.17324,-0.16926 -0.38773,-0.29623 -0.64337,-0.38086 -0.25353,-0.0867 -0.56313,-0.13022 -0.92863,-0.13022 z m 7.30912,0 c -0.0697,0 -0.12917,0.0212 -0.17777,0.0636 -0.0465,0.0402 -0.0693,0.1069 -0.0693,0.19999 v 3.57963 c 0,0.0931 0.0228,0.16075 0.0693,0.20308 0.0486,0.0402 0.10805,0.0605 0.17777,0.0605 h 2.0593 c 0.019,0 0.0364,-0.005 0.0512,-0.016 0.0169,-0.0127 0.0307,-0.0309 0.0413,-0.0563 0.0108,-0.0254 0.0182,-0.0585 0.0222,-0.0987 0.007,-0.0423 0.01,-0.0942 0.01,-0.15555 h 5.2e-4 c 0,-0.0614 -0.003,-0.11173 -0.01,-0.15193 -0.004,-0.0423 -0.0116,-0.0764 -0.0222,-0.1018 -0.0106,-0.0254 -0.0244,-0.0431 -0.0413,-0.0537 -0.0148,-0.0127 -0.0321,-0.0191 -0.0512,-0.0191 h -1.4764 v -1.15858 h 1.23869 c 0.019,0 0.0358,-0.005 0.0506,-0.0155 0.0169,-0.0106 0.0307,-0.0279 0.0413,-0.0512 0.0108,-0.0254 0.0182,-0.058 0.0222,-0.0982 0.007,-0.0402 0.01,-0.0911 0.01,-0.15244 0,-0.0592 -0.003,-0.10915 -0.01,-0.14935 -0.004,-0.0423 -0.0116,-0.0749 -0.0222,-0.0982 -0.0106,-0.0254 -0.0244,-0.0431 -0.0413,-0.0537 -0.0148,-0.0127 -0.0315,-0.0191 -0.0506,-0.0191 h -1.2392 v -1.00304 h 1.46399 c 0.0191,0 0.0358,-0.005 0.0506,-0.016 0.0148,-0.0127 0.0276,-0.0315 0.0382,-0.0568 0.0108,-0.0254 0.0182,-0.0585 0.0222,-0.0987 0.007,-0.0423 0.01,-0.0927 0.01,-0.15193 0,-0.0635 -0.003,-0.11535 -0.01,-0.15555 -0.004,-0.0423 -0.0116,-0.0764 -0.0222,-0.1018 -0.0106,-0.0275 -0.0234,-0.0462 -0.0382,-0.0568 -0.0148,-0.0106 -0.0315,-0.016 -0.0506,-0.016 z m -48.642513,0.62528 h 0.42168 c 0.128874,0 0.231419,0.0114 0.307475,0.0346 0.07817,0.0233 0.142046,0.0574 0.192753,0.1018 0.05071,0.0423 0.08885,0.0961 0.114205,0.16175 0.02535,0.0656 0.03824,0.13969 0.03824,0.22221 0,0.074 -0.0119,0.14469 -0.03514,0.21239 -0.02324,0.0656 -0.05889,0.12386 -0.107487,0.17466 -0.04648,0.0487 -0.105418,0.0877 -0.17725,0.11731 -0.07183,0.0275 -0.16793,0.0413 -0.288354,0.0413 h -0.466122 z m 41.916303,0.0284 h 0.42168 c 0.25563,0 0.46171,0.0351 0.61805,0.1049 0.15845,0.0677 0.28776,0.16254 0.38706,0.28525 0.10143,0.12271 0.17373,0.26797 0.21807,0.43512 0.0465,0.16714 0.0698,0.34795 0.0698,0.5426 0,0.23696 -0.0263,0.44447 -0.0791,0.62219 -0.0507,0.1777 -0.12897,0.32691 -0.23461,0.44751 -0.10352,0.11846 -0.2333,0.20687 -0.38964,0.26614 -0.15634,0.0593 -0.34905,0.0889 -0.57723,0.0889 h -0.43408 z m -34.467662,0.13022 h 0.0031 l 0.580326,1.74563 h -1.163236 z m 27.960052,0 h 0.003 l 0.58033,1.74563 h -1.16272 z m -35.408693,1.5167 h 0.494544 c 0.152118,0 0.275968,0.0138 0.371037,0.0413 0.09507,0.0275 0.172825,0.0665 0.234094,0.11731 0.06127,0.0508 0.107838,0.11452 0.139526,0.19069 0.03169,0.074 0.04703,0.15851 0.04703,0.25373 0,0.091 -0.01633,0.17249 -0.05013,0.24443 -0.03169,0.0698 -0.07728,0.1291 -0.136426,0.17776 -0.05704,0.0465 -0.125905,0.0826 -0.206189,0.10801 -0.07817,0.0233 -0.175258,0.0346 -0.291455,0.0346 h -0.602031 z m 1.135332,12.41527 c -0.07333,0 -0.137756,0.0181 -0.192754,0.0522 -0.05805,0.0367 -0.100617,0.0814 -0.125057,0.13643 l -1.616438,3.43648 c -0.0062,0.0105 -0.0094,0.0236 -0.0124,0.0393 -0.0062,0.0157 -0.0062,0.0344 -0.0062,0.0553 0,0.0419 0.0066,0.0781 0.02481,0.11213 0.01833,0.0341 0.03972,0.0632 0.07028,0.0894 0.03055,0.0262 0.06414,0.0447 0.103869,0.0605 0.03972,0.0157 0.08237,0.0207 0.131259,0.0207 0.07333,0 0.137239,-0.0155 0.192236,-0.0522 0.055,-0.0341 0.09493,-0.0789 0.119372,-0.13126 l 0.345199,-0.75706 h 1.931148 l 0.342098,0.7519 c 0.0275,0.0629 0.07058,0.11016 0.125574,0.14159 0.05499,0.0315 0.118816,0.047 0.186035,0.047 0.04278,0 0.0859,-0.006 0.128674,-0.0207 0.03972,-0.0157 0.07642,-0.0343 0.106971,-0.0605 0.03055,-0.0262 0.05194,-0.0553 0.07028,-0.0894 0.01833,-0.0341 0.02739,-0.0707 0.02739,-0.11265 0,-0.0209 -0.0031,-0.0417 -0.0093,-0.0574 -0.0062,-0.0157 -0.0094,-0.0288 -0.0124,-0.0393 l -1.612821,-3.43389 c -0.0275,-0.055 -0.07058,-0.0997 -0.125574,-0.13643 -0.05805,-0.0341 -0.121964,-0.0522 -0.192236,-0.0522 z m 6.656441,0 c -0.04888,0 -0.09154,0.007 -0.131258,0.0238 -0.04278,0.0157 -0.07642,0.0337 -0.106971,0.0599 -0.03055,0.0262 -0.05194,0.0579 -0.07028,0.092 -0.01833,0.0367 -0.02429,0.0734 -0.02429,0.11007 v 2.29185 c 0,0.23051 0.04261,0.43477 0.128158,0.61288 0.08555,0.17812 0.207931,0.32496 0.360702,0.44545 0.152768,0.1205 0.332767,0.21205 0.540535,0.27492 0.207767,0.0629 0.437179,0.0915 0.681612,0.0915 0.259709,0 0.495077,-0.0311 0.7059,-0.0966 0.210823,-0.0629 0.390821,-0.15749 0.540536,-0.2806 0.146657,-0.12312 0.262658,-0.27202 0.342098,-0.44752 0.07944,-0.1755 0.122473,-0.3747 0.122473,-0.59996 v -2.29185 c 0,-0.0367 -0.0091,-0.0734 -0.02739,-0.11007 -0.01833,-0.0341 -0.03972,-0.0658 -0.07028,-0.092 -0.03055,-0.0262 -0.06725,-0.0441 -0.10697,-0.0599 -0.04278,-0.0157 -0.0859,-0.0238 -0.128674,-0.0238 -0.04888,0 -0.09154,0.007 -0.131258,0.0238 -0.04278,0.0157 -0.07642,0.0337 -0.106971,0.0599 -0.03055,0.0262 -0.05194,0.0579 -0.07028,0.092 -0.01834,0.0367 -0.02429,0.0734 -0.02429,0.11007 v 2.25516 c 0,0.29861 -0.09159,0.52397 -0.274919,0.67851 -0.183325,0.15716 -0.439995,0.23306 -0.769979,0.23306 -0.174157,0 -0.326943,-0.0211 -0.455269,-0.0631 -0.131383,-0.0419 -0.24156,-0.10228 -0.327112,-0.18086 -0.08861,-0.0786 -0.155662,-0.17263 -0.198438,-0.28526 -0.04278,-0.11263 -0.06408,-0.24095 -0.06408,-0.3824 v -2.25516 c 0,-0.0367 -0.0096,-0.0734 -0.02791,-0.11007 -0.01833,-0.0341 -0.03972,-0.0658 -0.07028,-0.092 -0.03055,-0.0262 -0.06673,-0.0441 -0.106453,-0.0599 -0.04278,-0.0157 -0.0859,-0.0238 -0.128674,-0.0238 z m 15.672428,0 c -0.04148,0.002 -0.07841,0.009 -0.113172,0.0233 -0.04278,0.0157 -0.07641,0.0343 -0.10697,0.0605 -0.03055,0.0262 -0.05194,0.0579 -0.07028,0.092 -0.01833,0.0367 -0.02429,0.0728 -0.02429,0.10955 v 3.43183 c 0,0.0419 0.006,0.0786 0.02429,0.11266 0.01833,0.0367 0.03972,0.0653 0.07028,0.0915 0.03055,0.0262 0.06419,0.0447 0.10697,0.0605 0.03972,0.0157 0.08237,0.0207 0.131259,0.0207 0.04278,0 0.0859,-0.006 0.128674,-0.0207 0.03972,-0.0157 0.07642,-0.0343 0.10697,-0.0605 0.03055,-0.0262 0.05194,-0.0548 0.07028,-0.0915 0.01833,-0.0341 0.02739,-0.0707 0.02739,-0.11266 v -1.55081 h 2.001428 v 1.55081 c 0,0.0419 0.006,0.0786 0.02429,0.11266 0.01833,0.0367 0.03972,0.0653 0.07028,0.0915 0.03055,0.0262 0.0642,0.0447 0.10697,0.0605 0.03972,0.0157 0.08237,0.0207 0.131258,0.0207 0.04278,0 0.08538,-0.006 0.128155,-0.0207 0.0397,-0.0157 0.0764,-0.0343 0.10697,-0.0605 0.0306,-0.0262 0.0519,-0.0548 0.0703,-0.0915 0.0183,-0.0341 0.0279,-0.0707 0.0279,-0.11266 v -3.43183 c 0,-0.0367 -0.009,-0.0728 -0.0279,-0.10955 -0.0183,-0.0341 -0.0397,-0.0658 -0.0703,-0.092 -0.0306,-0.0262 -0.0672,-0.0447 -0.10697,-0.0605 -0.04278,-0.0157 -0.08538,-0.0233 -0.128155,-0.0233 -0.04888,0 -0.09154,0.007 -0.131258,0.0233 -0.03972,0.0157 -0.07331,0.0343 -0.10387,0.0605 -0.03055,0.0262 -0.05505,0.0579 -0.07338,0.092 -0.01833,0.0367 -0.02429,0.0728 -0.02429,0.10955 v 1.33067 h -2.001428 v -1.33067 c 0,-0.0367 -0.0091,-0.0728 -0.02739,-0.10955 -0.01833,-0.0341 -0.03972,-0.0658 -0.07028,-0.092 -0.03055,-0.0262 -0.06726,-0.0447 -0.10697,-0.0605 -0.04278,-0.0157 -0.0859,-0.0233 -0.128674,-0.0233 -0.0061,0 -0.01216,-2.3e-4 -0.01809,0 z m 9.861932,0 c -0.24443,0 -0.46441,0.0261 -0.66301,0.0785 -0.20166,0.0524 -0.37903,0.12588 -0.53485,0.21756 -0.15888,0.0943 -0.29317,0.20397 -0.40928,0.3297 -0.1161,0.12573 -0.21403,0.26466 -0.29042,0.41134 -0.0764,0.1493 -0.13439,0.30631 -0.17105,0.46871 -0.0367,0.16503 -0.0553,0.33005 -0.0553,0.49506 0,0.16765 0.0186,0.33316 0.0553,0.49557 0.0367,0.16501 0.0946,0.32202 0.17105,0.46871 0.0764,0.14931 0.17432,0.28821 0.29042,0.41393 0.11611,0.12573 0.2504,0.23543 0.40928,0.32711 0.15582,0.0943 0.33319,0.16518 0.53485,0.21756 0.1986,0.0524 0.41858,0.0786 0.66301,0.0786 0.24138,0 0.46136,-0.0262 0.66301,-0.0786 0.1986,-0.0524 0.37545,-0.12326 0.53433,-0.21756 0.15888,-0.0917 0.29679,-0.20138 0.4129,-0.32711 0.1161,-0.12572 0.21042,-0.26462 0.2868,-0.41393 0.0764,-0.14669 0.1349,-0.30373 0.17157,-0.46612 0.0366,-0.16241 0.0579,-0.33051 0.0579,-0.49816 0,-0.16501 -0.0212,-0.32955 -0.0579,-0.49196 -0.0366,-0.1624 -0.0952,-0.31995 -0.17157,-0.46664 -0.0764,-0.14669 -0.1707,-0.28558 -0.2868,-0.41393 -0.11611,-0.12573 -0.25397,-0.23539 -0.4098,-0.32969 -0.15888,-0.0917 -0.33577,-0.16517 -0.53743,-0.21756 -0.20165,-0.0524 -0.42163,-0.0811 -0.66301,-0.0811 z m 15.04611,0 c -0.0415,0.002 -0.079,0.009 -0.11369,0.0233 -0.0428,0.0157 -0.0759,0.0343 -0.10645,0.0605 -0.0306,0.0262 -0.0525,0.0579 -0.0708,0.092 -0.0184,0.0367 -0.0243,0.0728 -0.0243,0.10955 v 3.43183 c 0,0.0419 0.006,0.0786 0.0243,0.11266 0.0184,0.0367 0.0402,0.0653 0.0708,0.0915 0.0306,0.0262 0.0636,0.0447 0.10645,0.0605 0.0398,0.0157 0.0829,0.0207 0.13177,0.0207 0.0428,0 0.0853,-0.006 0.12816,-0.0207 0.0397,-0.0157 0.0765,-0.0343 0.10697,-0.0605 0.0306,-0.0262 0.052,-0.0548 0.0703,-0.0915 0.0184,-0.0341 0.0274,-0.0707 0.0274,-0.11266 v -3.43183 c 0,-0.0367 -0.009,-0.0728 -0.0274,-0.10955 -0.0184,-0.0341 -0.0397,-0.0658 -0.0703,-0.092 -0.0306,-0.0262 -0.0673,-0.0447 -0.10697,-0.0605 -0.0428,-0.0157 -0.0853,-0.0233 -0.12816,-0.0233 -0.006,0 -0.0122,-2.3e-4 -0.0181,0 z m 12.65762,0 c -0.0394,0.002 -0.0769,0.009 -0.11162,0.0233 -0.0397,0.0157 -0.0733,0.0343 -0.10387,0.0605 -0.0306,0.0262 -0.052,0.0548 -0.0703,0.0889 -0.0184,0.0341 -0.0243,0.0708 -0.0243,0.10748 0,0.055 0.0183,0.10734 0.0579,0.1571 l 1.35082,1.82314 v 1.45676 c 0,0.0419 0.006,0.0786 0.0243,0.11266 0.0184,0.0367 0.0429,0.0653 0.0734,0.0915 0.0306,0.0262 0.0642,0.0447 0.10387,0.0605 0.0397,0.0157 0.0824,0.0207 0.13126,0.0207 0.0458,0 0.0886,-0.006 0.13126,-0.0207 0.0397,-0.0157 0.0733,-0.0343 0.10387,-0.0605 0.0306,-0.0262 0.0525,-0.0553 0.0708,-0.092 0.0184,-0.0341 0.0279,-0.0702 0.0279,-0.11214 v -1.45676 l 1.35341,-1.82314 c 0.0366,-0.0471 0.0548,-0.0994 0.0548,-0.1571 0,-0.0367 -0.009,-0.0734 -0.0274,-0.10748 -0.0184,-0.0341 -0.0397,-0.0627 -0.0703,-0.0889 -0.0306,-0.0262 -0.0642,-0.0447 -0.10387,-0.0605 -0.0397,-0.0157 -0.0823,-0.0233 -0.12505,-0.0233 -0.0489,0 -0.0978,0.0105 -0.14986,0.0315 -0.052,0.0209 -0.0919,0.0521 -0.12248,0.094 l -1.14256,1.57148 -1.13999,-1.5689 c -0.0306,-0.0419 -0.0736,-0.0731 -0.12247,-0.0941 -0.0489,-0.0209 -0.10054,-0.0341 -0.15244,-0.0341 -0.006,0 -0.0114,-2.3e-4 -0.0171,0 z m -45.409628,0.063 c -0.0394,0.002 -0.07644,0.009 -0.10852,0.0233 -0.03972,0.0157 -0.07331,0.0344 -0.10387,0.0579 -0.03055,0.0262 -0.0519,0.0548 -0.06718,0.0863 -0.01833,0.0341 -0.02429,0.0708 -0.02429,0.10749 0,0.0393 0.006,0.076 0.02429,0.10749 0.01527,0.0341 0.03663,0.0627 0.06718,0.0889 0.03055,0.0262 0.06414,0.0448 0.10387,0.0579 0.03667,0.0157 0.07974,0.0207 0.125574,0.0207 h 1.029394 v 3.1042 c 0,0.0419 0.0066,0.0786 0.02481,0.11266 0.01833,0.0367 0.03972,0.0653 0.07028,0.0915 0.03055,0.0262 0.0642,0.0447 0.10697,0.0605 0.03972,0.0157 0.08237,0.0207 0.131258,0.0207 0.04278,0 0.08538,-0.006 0.128158,-0.0207 0.03972,-0.0157 0.07642,-0.0343 0.10697,-0.0605 0.03055,-0.0262 0.05194,-0.0548 0.07028,-0.0915 0.01833,-0.0341 0.02739,-0.0707 0.02739,-0.11266 v -3.1042 h 1.029912 c 0.04278,0 0.08534,-0.006 0.125057,-0.0207 0.03667,-0.0131 0.07022,-0.0318 0.100769,-0.0579 0.0275,-0.0262 0.04884,-0.0548 0.06718,-0.0889 0.01833,-0.0315 0.0279,-0.0682 0.0279,-0.10749 0,-0.0367 -0.0096,-0.0734 -0.0279,-0.10749 -0.01833,-0.0315 -0.03968,-0.0601 -0.06718,-0.0863 -0.03055,-0.0236 -0.06411,-0.0422 -0.100769,-0.0579 -0.03972,-0.0157 -0.08228,-0.0233 -0.125057,-0.0233 h -2.725415 c -0.0057,0 -0.01143,-2.2e-4 -0.01705,0 z m 24.855848,0 c -0.0394,0.002 -0.0764,0.009 -0.10852,0.0233 -0.0397,0.0157 -0.0733,0.0344 -0.10387,0.0579 -0.0306,0.0262 -0.052,0.0548 -0.0672,0.0863 -0.0184,0.0341 -0.0243,0.0708 -0.0243,0.10749 v 3.37912 c 0,0.0419 0.006,0.0786 0.0243,0.11266 0.0184,0.0367 0.0397,0.0653 0.0703,0.0915 0.0306,0.0262 0.0641,0.0447 0.10697,0.0605 0.0397,0.0157 0.0824,0.0207 0.13126,0.0207 0.0428,0 0.0853,-0.006 0.12816,-0.0207 0.0397,-0.0157 0.0764,-0.0343 0.10697,-0.0605 0.0306,-0.0262 0.0519,-0.0548 0.0703,-0.0915 0.0184,-0.0341 0.0279,-0.0707 0.0279,-0.11266 v -1.38596 h 0.32039 c 0.21999,0 0.40647,0.0318 0.56535,0.092 0.15581,0.0629 0.29645,0.16752 0.42478,0.3142 0.0672,0.0812 0.13122,0.17022 0.19843,0.26975 0.0672,0.0995 0.1285,0.20173 0.18655,0.30127 0.058,0.0995 0.11028,0.19667 0.15917,0.28836 0.0458,0.0917 0.0851,0.17019 0.11575,0.23306 0.0244,0.0524 0.0643,0.0941 0.11938,0.12557 0.055,0.0315 0.11623,0.047 0.18345,0.047 0.0428,0 0.0853,-0.006 0.12505,-0.0207 0.0397,-0.0157 0.0733,-0.0343 0.10387,-0.0605 0.0306,-0.0236 0.052,-0.0523 0.0703,-0.0863 0.0184,-0.0341 0.0274,-0.0707 0.0274,-0.11265 0,-0.0341 -0.009,-0.0682 -0.0212,-0.0997 -0.0367,-0.0733 -0.0794,-0.15987 -0.13125,-0.25941 -0.0519,-0.0995 -0.11,-0.20677 -0.17415,-0.31678 -0.0642,-0.11002 -0.13131,-0.22019 -0.20464,-0.33021 -0.0733,-0.11002 -0.14996,-0.21214 -0.22634,-0.30644 -0.0367,-0.0445 -0.0792,-0.0837 -0.12196,-0.12041 -0.0428,-0.0367 -0.089,-0.0679 -0.13178,-0.0992 0.13748,-0.0367 0.26315,-0.0839 0.37621,-0.14417 0.10999,-0.0576 0.20426,-0.12857 0.2837,-0.21239 0.0795,-0.0838 0.14068,-0.1779 0.18345,-0.28267 0.0428,-0.10478 0.0641,-0.22254 0.0641,-0.35089 0,-0.15192 -0.0366,-0.29888 -0.10387,-0.4377 -0.0672,-0.13621 -0.16515,-0.25643 -0.29042,-0.36121 -0.12528,-0.10477 -0.27496,-0.18627 -0.45217,-0.2465 -0.17721,-0.0603 -0.37265,-0.0915 -0.58652,-0.0915 h -1.40819 c -0.006,0 -0.0109,-2.2e-4 -0.0165,0 z m 13.01678,0 c -0.0394,0.002 -0.0759,0.009 -0.10801,0.0233 -0.0397,0.0157 -0.0733,0.0344 -0.10387,0.0579 -0.0306,0.0262 -0.052,0.0548 -0.0672,0.0863 -0.0184,0.0341 -0.0243,0.0708 -0.0243,0.10749 0,0.0393 0.006,0.076 0.0243,0.10749 0.0153,0.0341 0.0367,0.0627 0.0672,0.0889 0.0306,0.0262 0.0642,0.0448 0.10387,0.0579 0.0366,0.0157 0.0792,0.0207 0.12506,0.0207 h 1.02991 v 3.1042 c 0,0.0419 0.006,0.0786 0.0243,0.11266 0.0184,0.0367 0.0397,0.0653 0.0703,0.0915 0.0306,0.0262 0.0642,0.0447 0.10697,0.0605 0.0397,0.0157 0.0824,0.0207 0.13126,0.0207 0.0428,0 0.0853,-0.006 0.12815,-0.0207 0.0398,-0.0157 0.0764,-0.0343 0.10697,-0.0605 0.0306,-0.0262 0.052,-0.0548 0.0703,-0.0915 0.0184,-0.0341 0.0279,-0.0707 0.0279,-0.11266 v -3.1042 h 1.02939 c 0.0428,0 0.0858,-0.006 0.12558,-0.0207 0.0366,-0.0131 0.0702,-0.0318 0.10077,-0.0579 0.0275,-0.0262 0.0494,-0.0548 0.0677,-0.0889 0.0184,-0.0315 0.0274,-0.0682 0.0274,-0.10749 0,-0.0367 -0.009,-0.0734 -0.0274,-0.10749 -0.0184,-0.0315 -0.0402,-0.0601 -0.0677,-0.0863 -0.0306,-0.0236 -0.0641,-0.0422 -0.10077,-0.0579 -0.0397,-0.0157 -0.0828,-0.0233 -0.12558,-0.0233 h -2.72541 c -0.006,0 -0.0109,-2.2e-4 -0.0165,0 z m -20.16673,0.48679 c 0.25055,0 0.47039,0.0423 0.6537,0.12351 0.18332,0.0812 0.33301,0.18835 0.45217,0.32194 0.11916,0.1362 0.20757,0.29066 0.26562,0.46354 0.0581,0.17549 0.0889,0.35612 0.0889,0.54209 0,0.18859 -0.0309,0.37227 -0.0889,0.54777 -0.058,0.1755 -0.14646,0.32995 -0.26562,0.46354 -0.11916,0.13359 -0.27194,0.24078 -0.45527,0.31936 -0.18332,0.0812 -0.40005,0.12092 -0.6506,0.12092 -0.2536,0 -0.47091,-0.0397 -0.65423,-0.12351 -0.18333,-0.0812 -0.33612,-0.1909 -0.45526,-0.32711 -0.11916,-0.1362 -0.20752,-0.29066 -0.26252,-0.46354 -0.058,-0.17287 -0.0853,-0.35408 -0.0853,-0.53743 0,-0.18859 0.0273,-0.37176 0.0853,-0.54726 0.0581,-0.1755 0.14646,-0.32994 0.26562,-0.46353 0.11916,-0.13359 0.27195,-0.24078 0.45527,-0.31936 0.18331,-0.0786 0.40058,-0.12093 0.65112,-0.12093 z m 7.5122,0.0631 h 1.06299 c 0.12528,0 0.23554,0.0181 0.33331,0.0496 0.0947,0.0314 0.17407,0.0762 0.23823,0.13126 0.0641,0.055 0.11315,0.1179 0.14676,0.18862 0.0306,0.0707 0.0486,0.1437 0.0486,0.21704 0,0.0759 -0.0181,0.14941 -0.0486,0.22014 -0.0336,0.0707 -0.0826,0.13362 -0.14676,0.18862 -0.0642,0.055 -0.14351,0.0999 -0.23823,0.13125 -0.0977,0.0341 -0.20803,0.0496 -0.33331,0.0496 h -1.06299 z m -39.703001,0.34055 0.711584,1.55856 h -1.423686 z" /><path
           id="path650"
           style="font-weight:700;font-size:7.89246px;line-height:125%;font-family:'Arial Narrow';letter-spacing:1.32556px;word-spacing:0px;fill:#e6402d;fill-opacity:1;stroke:none;stroke-width:0;stroke-dasharray:none"
           d="m 100.64235,107.25574 c -0.685241,0 -1.230933,0.21985 -1.637107,0.65939 -0.466962,0.50644 -0.700733,1.20742 -0.700733,2.10324 0,0.84803 0.2324,1.52179 0.696599,2.02106 0.403411,0.43237 0.92939,0.64854 1.578711,0.64854 0.5167,0 0.95219,-0.13469 1.30587,-0.40463 0.35367,-0.27233 0.60664,-0.7027 0.75861,-1.29036 l -0.9741,-0.32608 c -0.0857,0.387 -0.22517,0.67041 -0.41858,0.84957 -0.19342,0.17677 -0.42308,0.2651 -0.68833,0.2651 -0.36197,0 -0.656061,-0.13961 -0.882636,-0.4191 -0.226574,-0.27949 -0.340031,-0.75009 -0.340031,-1.4118 0,-0.63782 0.1162,-1.09541 0.348299,-1.37253 0.232097,-0.2771 0.532198,-0.41548 0.899688,-0.41548 0.25697,0 0.47926,0.076 0.66714,0.22893 0.19068,0.15049 0.31784,0.36788 0.38137,0.65216 l 0.99478,-0.25063 c -0.12434,-0.46104 -0.32058,-0.80872 -0.5886,-1.04283 -0.37578,-0.32966 -0.8428,-0.49455 -1.40095,-0.49455 z m -27.457753,0.0899 v 5.25291 h 1.003039 v -2.29702 h 1.973007 v 2.29702 h 1.007173 v -5.25291 h -1.007173 v 2.06757 h -1.973007 v -2.06757 z m 6.415629,0 v 5.25291 h 1.003039 v -5.25291 z m 6.77633,0 v 0.88832 h 1.479497 v 4.36459 h 1.003039 v -4.36459 h 1.475879 v -0.88832 z m 6.038908,0 v 5.25291 h 3.787883 v -0.88522 h -2.784843 v -1.42937 h 2.503206 v -0.88521 h -2.503206 v -1.16479 h 2.693892 v -0.88832 z m 12.516546,0 v 5.25291 h 1.00304 v -2.29702 h 1.97249 v 2.29702 h 1.00718 v -5.25291 h -1.00718 v 2.06757 h -1.97249 v -2.06757 z m 9.80561,0 v 5.25291 h 1.00304 v -1.98179 h 0.65887 c 0.60789,0 1.03652,-0.0513 1.28519,-0.154 0.24868,-0.1051 0.45589,-0.28545 0.62167,-0.54105 0.16579,-0.258 0.24856,-0.5767 0.24856,-0.95653 0,-0.41805 -0.0965,-0.75958 -0.2899,-1.02474 -0.19065,-0.26517 -0.43402,-0.43865 -0.72967,-0.51987 -0.18513,-0.0501 -0.57897,-0.0749 -1.18132,-0.0749 z m 6.99182,0 -1.93942,5.25291 h 1.06919 l 0.41031,-1.19321 h 1.98954 l 0.43512,1.19321 h 1.09399 l -1.99316,-5.25291 z m 5.01933,0 v 5.25291 h 1.00304 v -2.19315 h 0.20722 c 0.2321,0 0.4004,0.0204 0.5054,0.061 0.10499,0.0382 0.20474,0.10986 0.29869,0.21497 0.0939,0.10272 0.27184,0.36084 0.53433,0.77412 l 0.72967,1.14308 h 1.19786 l -0.60513,-1.02474 c -0.24315,-0.41088 -0.43527,-0.695 -0.57619,-0.85267 -0.14091,-0.16005 -0.31933,-0.30702 -0.53485,-0.44079 0.41998,-0.0645 0.74338,-0.22253 0.96996,-0.47336 0.22934,-0.25083 0.34417,-0.58131 0.34417,-0.99219 0,-0.32488 -0.0745,-0.60337 -0.22376,-0.83509 -0.14921,-0.23411 -0.33996,-0.39777 -0.57206,-0.49093 -0.2321,-0.0956 -0.61909,-0.14314 -1.16065,-0.14314 z m 6.45697,0 v 5.25291 h 1.00304 v -1.5875 l 0.81649,-0.87798 1.37201,2.46548 h 1.30121 l -1.97662,-3.20704 1.8774,-2.04587 h -1.35547 l -2.03502,2.33267 v -2.33267 z m -17.46508,0.88832 h 0.48937 c 0.41999,0 0.69489,0.0204 0.82476,0.061 0.12986,0.0406 0.23869,0.12085 0.32711,0.24029 0.0884,0.11944 0.13281,0.26642 0.13281,0.4408 0,0.172 -0.043,0.31774 -0.12868,0.43718 -0.0857,0.11705 -0.19586,0.198 -0.33124,0.2434 -0.13263,0.0454 -0.38559,0.0682 -0.75861,0.0682 h -0.55552 z m 12.01115,0 h 0.78755 c 0.45038,0 0.72254,0.0135 0.81649,0.0398 0.13263,0.0382 0.23735,0.10863 0.31471,0.21136 0.0774,0.10032 0.11627,0.23379 0.11627,0.401 0,0.17439 -0.0389,0.31451 -0.11627,0.41962 -0.0774,0.10514 -0.17797,0.17555 -0.30231,0.21135 -0.12435,0.0335 -0.41484,0.0501 -0.87075,0.0501 h -0.74569 z m -5.49992,0.33693 0.68368,1.94923 h -1.35909 z m -39.547461,1.61954 v 1.00717 h 1.877922 v -1.00717 z" /></g></g></g><metadata
     id="metadata2329"><rdf:RDF><cc:Work
         rdf:about=""><dc:title>Bangladesh Hi-tech Park Authority (BHTPA) - বাংলাদেশ হাই-টেক পার্ক কর্তৃপক্ষ (বাহাটেপাক)</dc:title></cc:Work></rdf:RDF></metadata></svg>
